<?xml version="1.0" encoding="utf-8"?>
<!-- Generator: Adobe Illustrator 24.0.1, SVG Export Plug-In . SVG Version: 6.00 Build 0)  -->
<svg version="1.1" id="Layer_1" xmlns="http://www.w3.org/2000/svg" xmlns:xlink="http://www.w3.org/1999/xlink" x="0px" y="0px"
	 viewBox="0 0 1685.7 264.2" style="enable-background:new 0 0 1685.7 264.2;" xml:space="preserve">
<style type="text/css">
	.st0{fill:#2C2F3A;}
</style>
<g>
	<g>
		<path class="st0" d="M281,147.4c-9.7,0-18.7-1.6-27-4.7c-8.3-3.2-15.5-7.7-21.6-13.5c-6.1-5.9-10.8-12.7-14.2-20.6
			S213,92,213,82.6c0-9.4,1.7-18.1,5.1-26s8.2-14.8,14.3-20.6c6.2-5.9,13.4-10.4,21.7-13.5c8.3-3.2,17.3-4.7,27-4.7
			c10.9,0,20.7,1.9,29.6,5.6c8.8,3.8,16.2,9.3,22.2,16.6l-18.8,17.2c-4.2-4.9-8.9-8.6-14.2-11.1c-5.3-2.5-11.1-3.8-17.3-3.8
			c-5.9,0-11.2,1-16.1,3c-4.9,2-9.1,4.7-12.7,8.3c-3.6,3.6-6.4,7.8-8.3,12.7c-2,4.9-3,10.3-3,16.3c0,6,1,11.4,3,16.3
			c2,4.9,4.7,9.1,8.3,12.7c3.6,3.6,7.8,6.4,12.7,8.3c4.9,2,10.3,3,16.1,3c6.2,0,12-1.3,17.3-3.9c5.3-2.6,10.1-6.3,14.2-11.2
			l18.8,17.2c-6,7.3-13.4,12.8-22.2,16.7C301.9,145.5,292,147.4,281,147.4z"/>
		<path class="st0" d="M392.4,146.7c-10.2,0-19.2-2.2-27.2-6.5c-7.9-4.3-14.2-10.2-18.7-17.7c-4.5-7.5-6.8-16-6.8-25.5
			c0-9.7,2.3-18.3,6.8-25.7c4.5-7.5,10.8-13.3,18.7-17.6c7.9-4.2,17-6.4,27.2-6.4c10.3,0,19.4,2.1,27.4,6.4
			c8,4.2,14.3,10.1,18.8,17.6c4.5,7.5,6.8,16,6.8,25.7c0,9.7-2.3,18.2-6.8,25.6c-4.5,7.4-10.8,13.3-18.8,17.6
			C411.9,144.6,402.7,146.7,392.4,146.7z M392.4,123.8c4.8,0,9-1,12.6-3.1c3.6-2.1,6.6-5.2,8.8-9.2c2.2-4.1,3.3-8.8,3.3-14.3
			c0-5.6-1.1-10.4-3.3-14.3c-2.2-3.9-5.1-7-8.8-9.1c-3.6-2.1-7.8-3.1-12.5-3.1c-4.7,0-8.8,1-12.5,3.1c-3.7,2.1-6.7,5.1-8.9,9.1
			c-2.2,3.9-3.3,8.7-3.3,14.3c0,5.5,1.1,10.3,3.3,14.3c2.2,4.1,5.2,7.1,8.9,9.2C383.8,122.7,387.9,123.8,392.4,123.8z"/>
		<path class="st0" d="M522.7,47.4c7.6,0,14.5,1.5,20.5,4.6c6,3,10.8,7.7,14.2,14c3.5,6.3,5.2,14.3,5.2,24.1v55.2h-28V94.4
			c0-7.8-1.7-13.5-5.1-17.2c-3.4-3.7-8.2-5.6-14.4-5.6c-4.4,0-8.4,1-11.9,2.9c-3.5,1.9-6.3,4.7-8.2,8.4c-2,3.7-3,8.6-3,14.7v47.7
			h-28V48.9h26.7v26.7l-5-8.1c3.5-6.5,8.4-11.4,14.9-14.9C507.1,49.2,514.5,47.4,522.7,47.4z"/>
		<path class="st0" d="M646.4,47.4c7.6,0,14.5,1.5,20.5,4.6c6,3,10.8,7.7,14.2,14c3.5,6.3,5.2,14.3,5.2,24.1v55.2h-28V94.4
			c0-7.8-1.7-13.5-5.1-17.2c-3.4-3.7-8.2-5.6-14.4-5.6c-4.4,0-8.4,1-11.9,2.9c-3.5,1.9-6.3,4.7-8.2,8.4c-2,3.7-3,8.6-3,14.7v47.7
			h-28V48.9h26.7v26.7l-5-8.1c3.5-6.5,8.4-11.4,14.9-14.9C630.8,49.2,638.2,47.4,646.4,47.4z"/>
		<path class="st0" d="M760,146.7c-11,0-20.6-2.2-28.9-6.5c-8.2-4.3-14.6-10.2-19.2-17.7c-4.5-7.5-6.8-16-6.8-25.5
			c0-9.6,2.2-18.1,6.5-25.6c4.4-7.5,10.5-13.4,18.3-17.7c7.8-4.2,16.6-6.4,26.4-6.4c9.4,0,18,2,25.5,6.1c7.6,4.1,13.6,9.8,18,17.2
			c4.4,7.4,6.6,16.3,6.6,26.7c0,1.1-0.1,2.3-0.2,3.7c-0.1,1.4-0.2,2.7-0.4,3.9h-78.3V88.7h63.6l-10.9,4.8c0.1-5-0.8-9.4-2.9-13.1
			c-2-3.7-4.8-6.6-8.4-8.7c-3.6-2.1-7.8-3.1-12.5-3.1c-4.8,0-9,1-12.6,3.1c-3.6,2.1-6.5,5-8.5,8.8c-2,3.8-3,8.2-3,13.4v4.3
			c0,5.4,1.2,10,3.6,14c2.4,3.9,5.7,7,9.9,9.1c4.2,2.1,9.2,3.1,15.1,3.1c5,0,9.5-0.8,13.4-2.3c3.9-1.6,7.4-3.9,10.7-7l14.9,16.1
			c-4.4,5-10,8.9-16.7,11.6C776.5,145.4,768.8,146.7,760,146.7z"/>
		<path class="st0" d="M871.9,146.7c-10.4,0-19.6-2.1-27.7-6.4c-8.1-4.2-14.4-10.1-19-17.7c-4.6-7.5-6.9-16.1-6.9-25.6
			c0-9.7,2.3-18.2,6.9-25.6c4.6-7.4,10.9-13.3,19-17.6c8.1-4.3,17.3-6.5,27.7-6.5c10.2,0,19,2.1,26.6,6.4c7.6,4.2,13.1,10.2,16.4,18
			l-21.5,11.8c-2.6-4.5-5.8-7.9-9.5-9.9c-3.7-2.1-7.8-3.1-12.2-3.1c-4.7,0-8.9,1-12.7,3.1c-3.8,2.1-6.9,5.1-9.1,9.1
			c-2.3,3.9-3.4,8.7-3.4,14.3c0,5.6,1.1,10.4,3.4,14.4c2.3,4,5.3,7.1,9.1,9.1c3.8,2.1,8.1,3.1,12.7,3.1c4.4,0,8.5-1,12.2-3.1
			c3.7-2.1,6.9-5.5,9.5-10.1l21.5,11.8c-3.3,7.6-8.8,13.6-16.4,17.9C890.9,144.6,882,146.7,871.9,146.7z"/>
		<path class="st0" d="M921.3,72.5V51h66.9v21.5H921.3z M972.2,146.7c-11.4,0-20.2-2.9-26.5-8.7c-6.3-5.8-9.5-14.4-9.5-25.9V27.5
			h28.1v84.1c0,4.1,1,7.2,3.1,9.5c2.1,2.3,4.9,3.4,8.5,3.4c4.5,0,8.4-1.2,11.5-3.6l7.3,19.7c-2.8,2-6.1,3.6-10.1,4.6
			C980.7,146.2,976.5,146.7,972.2,146.7z"/>
		<path class="st0" d="M1093.9,145.3l-41.2-125.5h30.1l35.7,111.1h-15.1l37.3-111.1h26.9l35.8,111.1h-14.5l36.6-111.1h27.8
			l-41.2,125.5h-30.8l-31.9-97.5h8.2l-32.6,97.5H1093.9z"/>
		<path class="st0" d="M1290,146.7c-7.4,0-13.8-1.3-19.2-3.9c-5.4-2.6-9.5-6.1-12.5-10.5c-2.9-4.4-4.4-9.4-4.4-14.9
			c0-5.6,1.4-10.6,4.2-15c2.8-4.4,7.3-7.7,13.4-10.1c6.1-2.4,14.1-3.6,24-3.6h25.5V105h-22.6c-6.6,0-11.1,1.1-13.5,3.2
			c-2.5,2.2-3.7,4.8-3.7,8.1c0,3.6,1.4,6.4,4.2,8.5c2.8,2.1,6.6,3.1,11.4,3.1c4.8,0,9.1-1.1,12.8-3.2c3.8-2.2,6.4-5.4,8-9.9
			l4.3,13.1c-2,6-5.7,10.6-11.1,13.9C1305.4,145.1,1298.5,146.7,1290,146.7z M1319.4,145.3v-18.8l-1.8-4.1V88.7c0-6-1.8-10.6-5.5-14
			c-3.6-3.3-9.2-5-16.8-5c-5.1,0-10.2,0.8-15.1,2.4c-5,1.6-9.2,3.8-12.8,6.5l-9.9-19.5c5.3-3.8,11.6-6.7,19-8.7c7.4-2,14.9-3,22.6-3
			c14.7,0,26.1,3.5,34.2,10.4c8.1,6.9,12.2,17.7,12.2,32.4v55H1319.4z"/>
		<path class="st0" d="M1370.8,145.3v-133h28v133H1370.8z"/>
		<path class="st0" d="M1424.8,145.3v-133h28v133H1424.8z"/>
		<path class="st0" d="M1526.6,146.7c-11,0-20.6-2.2-28.9-6.5c-8.2-4.3-14.6-10.2-19.2-17.7c-4.5-7.5-6.8-16-6.8-25.5
			c0-9.6,2.2-18.1,6.5-25.6c4.4-7.5,10.5-13.4,18.3-17.7c7.8-4.2,16.6-6.4,26.4-6.4c9.4,0,18,2,25.5,6.1c7.6,4.1,13.6,9.8,18,17.2
			c4.4,7.4,6.6,16.3,6.6,26.7c0,1.1-0.1,2.3-0.2,3.7c-0.1,1.4-0.2,2.7-0.4,3.9h-78.3V88.7h63.6l-10.9,4.8c0.1-5-0.8-9.4-2.9-13.1
			c-2-3.7-4.8-6.6-8.4-8.7c-3.6-2.1-7.8-3.1-12.5-3.1c-4.8,0-9,1-12.6,3.1c-3.6,2.1-6.5,5-8.5,8.8c-2,3.8-3,8.2-3,13.4v4.3
			c0,5.4,1.2,10,3.6,14c2.4,3.9,5.7,7,9.9,9.1c4.2,2.1,9.2,3.1,15.1,3.1c5,0,9.5-0.8,13.4-2.3c3.9-1.6,7.4-3.9,10.7-7l14.9,16.1
			c-4.4,5-10,8.9-16.7,11.6C1543,145.4,1535.3,146.7,1526.6,146.7z"/>
		<path class="st0" d="M1580.4,72.5V51h66.9v21.5H1580.4z M1631.3,146.7c-11.4,0-20.2-2.9-26.5-8.7c-6.3-5.8-9.5-14.4-9.5-25.9V27.5
			h28.1v84.1c0,4.1,1,7.2,3.1,9.5c2.1,2.3,4.9,3.4,8.5,3.4c4.5,0,8.4-1.2,11.5-3.6l7.3,19.7c-2.8,2-6.1,3.6-10.1,4.6
			C1639.7,146.2,1635.6,146.7,1631.3,146.7z"/>
	</g>
	<path class="st0" d="M148.5,132.1H48.6c-5.3,0-10.4,2.1-14.1,5.9c-3.7,3.7-5.9,8.8-5.9,14.1c0,5.3,2.1,10.4,5.9,14.1
		c3.7,3.7,8.8,5.9,14.1,5.9h99.9c5.3,0,10.4-2.1,14.1-5.9c3.7-3.7,5.9-8.8,5.9-14.1c0-5.3-2.1-10.4-5.9-14.1
		C158.9,134.2,153.8,132.1,148.5,132.1z"/>
	<path class="st0" d="M1637.1,212H48.6c-5.3,0-10.4,2.1-14.1,5.9c-3.7,3.7-5.9,8.8-5.9,14.1c0,5.3,2.1,10.4,5.9,14.1
		c3.7,3.7,8.8,5.9,14.1,5.9h1588.5c5.3,0,10.4-2.1,14.1-5.9c3.7-3.7,5.9-8.8,5.9-14.1c0-5.3-2.1-10.4-5.9-14.1
		C1647.4,214.1,1642.4,212,1637.1,212z"/>
</g>
</svg>
